<?xml version="1.0" encoding="UTF-8" standalone="no"?>
<svg
   id="共通_キャラクター作成状況アイコン_"
   width="32"
   height="32"
   viewBox="0 0 32 32"
   version="1.1"
   xmlns="http://www.w3.org/2000/svg"
   xmlns:svg="http://www.w3.org/2000/svg"
   xmlns:rdf="http://www.w3.org/1999/02/22-rdf-syntax-ns#"
   xmlns:x="adobe:ns:meta/">
  <metadata
     id="metadata2">
<?xpacket begin="﻿" id="W5M0MpCehiHzreSzNTczkc9d"?>    <x:xmpmeta
       x:xmptk="Adobe XMP Core 5.6-c138 79.159824, 2016/09/14-01:09:01        ">
      <rdf:RDF>
        <rdf:Description
           rdf:about="" />
      </rdf:RDF>
    </x:xmpmeta>
<?xpacket end="w"?>  </metadata>
  <defs
     id="defs6">
  </defs>
  <path
     id="chr_av"
     data-name="dchr_av"
     class="cls-1"
     d="m 17.182,25.722 c 0,2.247 -2.78,4.228 -8.257,4.228 -5.477,0 -8.2,-1.9 -8.2,-4.228 0,-3.916 5.837,-5.065 5.837,-6.91 0,-1.729 -3.17,-1.894 -3.17,-7.212 -0.054688,-3.0620285 2.4065037,-5.5767738 5.469,-5.588 3.086005,0 5.587552,2.5019946 5.587,5.588 0,5.372 -3.276,5.478 -3.276,7.207 0,1.787 6.01,2.824 6.01,6.915 z"
     transform="translate(-0.359,0.031)"
     style="fill:#a8a8a8;fill-opacity:1" />
  <path
     style="opacity:1;fill:none;fill-opacity:1;stroke:#a8a8a8;stroke-width:4;stroke-linecap:butt;stroke-linejoin:miter;stroke-miterlimit:4;stroke-dasharray:none;stroke-dashoffset:0;stroke-opacity:1;paint-order:normal"
     d="m 19.862203,7.4154495 c 0,-2.2771176 1.785487,-3.7755011 3.781236,-3.7755011 1.92976,0 3.761058,1.0441011 3.761058,3.7733582 0,3.4335484 -3.76212,2.3620334 -3.76212,5.7435114"
     id="path4710" />
  <rect
     style="display:inline;opacity:1;fill:#a8a8a8;fill-opacity:1;stroke:none;stroke-width:1.5;stroke-miterlimit:4;stroke-dasharray:none;stroke-opacity:1"
     id="rect5909"
     width="4.0047622"
     height="4.0430107"
     x="21.636238"
     y="14.312044"
     ry="0" />
</svg>
